<mxfile host="app.diagrams.net" agent="Mozilla/5.0 (Windows NT 10.0; Win64; x64) AppleWebKit/537.36 (KHTML, like Gecko) Chrome/129.0.0.0 Safari/537.36 Edg/129.0.0.0" version="24.7.16">
  <diagram name="第 1 页" id="qsuVyvbhFHqotlB28iIr">
    <mxGraphModel dx="1026" dy="489" grid="1" gridSize="10" guides="1" tooltips="1" connect="1" arrows="1" fold="1" page="1" pageScale="1" pageWidth="827" pageHeight="1169" math="0" shadow="0">
      <root>
        <mxCell id="0" />
        <mxCell id="1" parent="0" />
        <mxCell id="m-NyeYcFWqAB6fJ0VtxW-3" value="" style="edgeStyle=orthogonalEdgeStyle;rounded=0;orthogonalLoop=1;jettySize=auto;html=1;" edge="1" parent="1" source="m-NyeYcFWqAB6fJ0VtxW-1" target="m-NyeYcFWqAB6fJ0VtxW-2">
          <mxGeometry relative="1" as="geometry" />
        </mxCell>
        <mxCell id="m-NyeYcFWqAB6fJ0VtxW-1" value="等待開始" style="rounded=0;whiteSpace=wrap;html=1;" vertex="1" parent="1">
          <mxGeometry x="350" y="230" width="120" height="60" as="geometry" />
        </mxCell>
        <mxCell id="m-NyeYcFWqAB6fJ0VtxW-5" value="" style="edgeStyle=orthogonalEdgeStyle;rounded=0;orthogonalLoop=1;jettySize=auto;html=1;" edge="1" parent="1" source="m-NyeYcFWqAB6fJ0VtxW-2" target="m-NyeYcFWqAB6fJ0VtxW-4">
          <mxGeometry relative="1" as="geometry" />
        </mxCell>
        <mxCell id="m-NyeYcFWqAB6fJ0VtxW-2" value="示範題組" style="whiteSpace=wrap;html=1;rounded=0;" vertex="1" parent="1">
          <mxGeometry x="550" y="230" width="120" height="60" as="geometry" />
        </mxCell>
        <mxCell id="m-NyeYcFWqAB6fJ0VtxW-7" value="" style="edgeStyle=orthogonalEdgeStyle;rounded=0;orthogonalLoop=1;jettySize=auto;html=1;" edge="1" parent="1" source="m-NyeYcFWqAB6fJ0VtxW-4" target="m-NyeYcFWqAB6fJ0VtxW-6">
          <mxGeometry relative="1" as="geometry" />
        </mxCell>
        <mxCell id="m-NyeYcFWqAB6fJ0VtxW-34" value="No" style="edgeLabel;html=1;align=center;verticalAlign=middle;resizable=0;points=[];" vertex="1" connectable="0" parent="m-NyeYcFWqAB6fJ0VtxW-7">
          <mxGeometry x="-0.1611" y="2" relative="1" as="geometry">
            <mxPoint as="offset" />
          </mxGeometry>
        </mxCell>
        <mxCell id="m-NyeYcFWqAB6fJ0VtxW-9" value="" style="edgeStyle=orthogonalEdgeStyle;rounded=0;orthogonalLoop=1;jettySize=auto;html=1;" edge="1" parent="1" source="m-NyeYcFWqAB6fJ0VtxW-4" target="m-NyeYcFWqAB6fJ0VtxW-8">
          <mxGeometry relative="1" as="geometry" />
        </mxCell>
        <mxCell id="m-NyeYcFWqAB6fJ0VtxW-33" value="Yes" style="edgeLabel;html=1;align=center;verticalAlign=middle;resizable=0;points=[];" vertex="1" connectable="0" parent="m-NyeYcFWqAB6fJ0VtxW-9">
          <mxGeometry x="-0.2407" relative="1" as="geometry">
            <mxPoint as="offset" />
          </mxGeometry>
        </mxCell>
        <mxCell id="m-NyeYcFWqAB6fJ0VtxW-4" value="五位隊員都玩過了嗎" style="rhombus;whiteSpace=wrap;html=1;rounded=0;" vertex="1" parent="1">
          <mxGeometry x="770" y="190" width="140" height="140" as="geometry" />
        </mxCell>
        <mxCell id="m-NyeYcFWqAB6fJ0VtxW-13" value="" style="edgeStyle=orthogonalEdgeStyle;rounded=0;orthogonalLoop=1;jettySize=auto;html=1;" edge="1" parent="1" source="m-NyeYcFWqAB6fJ0VtxW-6" target="m-NyeYcFWqAB6fJ0VtxW-12">
          <mxGeometry relative="1" as="geometry" />
        </mxCell>
        <mxCell id="m-NyeYcFWqAB6fJ0VtxW-6" value="派一位隊員參與" style="whiteSpace=wrap;html=1;rounded=0;" vertex="1" parent="1">
          <mxGeometry x="780" y="450" width="120" height="60" as="geometry" />
        </mxCell>
        <mxCell id="m-NyeYcFWqAB6fJ0VtxW-11" value="" style="edgeStyle=orthogonalEdgeStyle;rounded=0;orthogonalLoop=1;jettySize=auto;html=1;" edge="1" parent="1" source="m-NyeYcFWqAB6fJ0VtxW-8" target="m-NyeYcFWqAB6fJ0VtxW-10">
          <mxGeometry relative="1" as="geometry" />
        </mxCell>
        <mxCell id="m-NyeYcFWqAB6fJ0VtxW-8" value="結算隊伍成績" style="whiteSpace=wrap;html=1;rounded=0;" vertex="1" parent="1">
          <mxGeometry x="1000" y="230" width="120" height="60" as="geometry" />
        </mxCell>
        <mxCell id="m-NyeYcFWqAB6fJ0VtxW-38" value="" style="edgeStyle=orthogonalEdgeStyle;rounded=0;orthogonalLoop=1;jettySize=auto;html=1;" edge="1" parent="1" source="m-NyeYcFWqAB6fJ0VtxW-10" target="m-NyeYcFWqAB6fJ0VtxW-37">
          <mxGeometry relative="1" as="geometry" />
        </mxCell>
        <mxCell id="m-NyeYcFWqAB6fJ0VtxW-10" value="Bonus 環節" style="whiteSpace=wrap;html=1;rounded=0;" vertex="1" parent="1">
          <mxGeometry x="1200" y="230" width="120" height="60" as="geometry" />
        </mxCell>
        <mxCell id="m-NyeYcFWqAB6fJ0VtxW-17" value="" style="edgeStyle=orthogonalEdgeStyle;rounded=0;orthogonalLoop=1;jettySize=auto;html=1;" edge="1" parent="1" source="m-NyeYcFWqAB6fJ0VtxW-12" target="m-NyeYcFWqAB6fJ0VtxW-16">
          <mxGeometry relative="1" as="geometry" />
        </mxCell>
        <mxCell id="m-NyeYcFWqAB6fJ0VtxW-12" value="主持人選分類" style="whiteSpace=wrap;html=1;rounded=0;" vertex="1" parent="1">
          <mxGeometry x="980" y="450" width="120" height="60" as="geometry" />
        </mxCell>
        <mxCell id="m-NyeYcFWqAB6fJ0VtxW-19" value="" style="edgeStyle=orthogonalEdgeStyle;rounded=0;orthogonalLoop=1;jettySize=auto;html=1;" edge="1" parent="1" source="m-NyeYcFWqAB6fJ0VtxW-16" target="m-NyeYcFWqAB6fJ0VtxW-18">
          <mxGeometry relative="1" as="geometry" />
        </mxCell>
        <mxCell id="m-NyeYcFWqAB6fJ0VtxW-32" value="No" style="edgeLabel;html=1;align=center;verticalAlign=middle;resizable=0;points=[];" vertex="1" connectable="0" parent="m-NyeYcFWqAB6fJ0VtxW-19">
          <mxGeometry x="-0.0545" y="2" relative="1" as="geometry">
            <mxPoint as="offset" />
          </mxGeometry>
        </mxCell>
        <mxCell id="m-NyeYcFWqAB6fJ0VtxW-28" value="" style="edgeStyle=orthogonalEdgeStyle;rounded=0;orthogonalLoop=1;jettySize=auto;html=1;" edge="1" parent="1" source="m-NyeYcFWqAB6fJ0VtxW-16" target="m-NyeYcFWqAB6fJ0VtxW-27">
          <mxGeometry relative="1" as="geometry" />
        </mxCell>
        <mxCell id="m-NyeYcFWqAB6fJ0VtxW-31" value="Yes" style="edgeLabel;html=1;align=center;verticalAlign=middle;resizable=0;points=[];" vertex="1" connectable="0" parent="m-NyeYcFWqAB6fJ0VtxW-28">
          <mxGeometry x="-0.1667" y="1" relative="1" as="geometry">
            <mxPoint as="offset" />
          </mxGeometry>
        </mxCell>
        <mxCell id="m-NyeYcFWqAB6fJ0VtxW-16" value="回答五題了嗎" style="rhombus;whiteSpace=wrap;html=1;rounded=0;" vertex="1" parent="1">
          <mxGeometry x="1200" y="420" width="120" height="120" as="geometry" />
        </mxCell>
        <mxCell id="m-NyeYcFWqAB6fJ0VtxW-21" value="" style="edgeStyle=orthogonalEdgeStyle;rounded=0;orthogonalLoop=1;jettySize=auto;html=1;" edge="1" parent="1" source="m-NyeYcFWqAB6fJ0VtxW-18" target="m-NyeYcFWqAB6fJ0VtxW-20">
          <mxGeometry relative="1" as="geometry" />
        </mxCell>
        <mxCell id="m-NyeYcFWqAB6fJ0VtxW-18" value="系統出題" style="whiteSpace=wrap;html=1;rounded=0;" vertex="1" parent="1">
          <mxGeometry x="1200" y="650" width="120" height="60" as="geometry" />
        </mxCell>
        <mxCell id="m-NyeYcFWqAB6fJ0VtxW-23" value="" style="edgeStyle=orthogonalEdgeStyle;rounded=0;orthogonalLoop=1;jettySize=auto;html=1;" edge="1" parent="1" source="m-NyeYcFWqAB6fJ0VtxW-20" target="m-NyeYcFWqAB6fJ0VtxW-22">
          <mxGeometry relative="1" as="geometry" />
        </mxCell>
        <mxCell id="m-NyeYcFWqAB6fJ0VtxW-20" value="隊員答題" style="whiteSpace=wrap;html=1;rounded=0;" vertex="1" parent="1">
          <mxGeometry x="1400" y="650" width="120" height="60" as="geometry" />
        </mxCell>
        <mxCell id="m-NyeYcFWqAB6fJ0VtxW-26" style="edgeStyle=orthogonalEdgeStyle;rounded=0;orthogonalLoop=1;jettySize=auto;html=1;entryX=0.5;entryY=0;entryDx=0;entryDy=0;" edge="1" parent="1" source="m-NyeYcFWqAB6fJ0VtxW-22" target="m-NyeYcFWqAB6fJ0VtxW-16">
          <mxGeometry relative="1" as="geometry">
            <Array as="points">
              <mxPoint x="1790" y="680" />
              <mxPoint x="1790" y="360" />
              <mxPoint x="1260" y="360" />
            </Array>
          </mxGeometry>
        </mxCell>
        <mxCell id="m-NyeYcFWqAB6fJ0VtxW-22" value="主持人解析" style="whiteSpace=wrap;html=1;rounded=0;" vertex="1" parent="1">
          <mxGeometry x="1600" y="650" width="120" height="60" as="geometry" />
        </mxCell>
        <mxCell id="m-NyeYcFWqAB6fJ0VtxW-30" value="" style="edgeStyle=orthogonalEdgeStyle;rounded=0;orthogonalLoop=1;jettySize=auto;html=1;" edge="1" parent="1" source="m-NyeYcFWqAB6fJ0VtxW-27" target="m-NyeYcFWqAB6fJ0VtxW-29">
          <mxGeometry relative="1" as="geometry" />
        </mxCell>
        <mxCell id="m-NyeYcFWqAB6fJ0VtxW-27" value="隊員抽獎" style="whiteSpace=wrap;html=1;rounded=0;" vertex="1" parent="1">
          <mxGeometry x="1400" y="450" width="120" height="60" as="geometry" />
        </mxCell>
        <mxCell id="m-NyeYcFWqAB6fJ0VtxW-35" style="edgeStyle=orthogonalEdgeStyle;rounded=0;orthogonalLoop=1;jettySize=auto;html=1;entryX=0.5;entryY=0;entryDx=0;entryDy=0;" edge="1" parent="1" source="m-NyeYcFWqAB6fJ0VtxW-29" target="m-NyeYcFWqAB6fJ0VtxW-4">
          <mxGeometry relative="1" as="geometry">
            <Array as="points">
              <mxPoint x="1830" y="480" />
              <mxPoint x="1830" y="130" />
              <mxPoint x="840" y="130" />
            </Array>
          </mxGeometry>
        </mxCell>
        <mxCell id="m-NyeYcFWqAB6fJ0VtxW-29" value="結算當下成績" style="whiteSpace=wrap;html=1;rounded=0;" vertex="1" parent="1">
          <mxGeometry x="1600" y="450" width="120" height="60" as="geometry" />
        </mxCell>
        <mxCell id="m-NyeYcFWqAB6fJ0VtxW-37" value="結束" style="whiteSpace=wrap;html=1;rounded=0;" vertex="1" parent="1">
          <mxGeometry x="1400" y="230" width="120" height="60" as="geometry" />
        </mxCell>
      </root>
    </mxGraphModel>
  </diagram>
</mxfile>
